<?xml version="1.0" encoding="utf-8"?>
<!-- Generator: Adobe Illustrator 16.0.0, SVG Export Plug-In . SVG Version: 6.00 Build 0)  -->
<!DOCTYPE svg PUBLIC "-//W3C//DTD SVG 1.0//EN" "http://www.w3.org/TR/2001/REC-SVG-20010904/DTD/svg10.dtd">
<svg version="1.0" id="Layer_1" xmlns="http://www.w3.org/2000/svg" xmlns:xlink="http://www.w3.org/1999/xlink" x="0px" y="0px"
	 width="450.644px" height="152.522px" viewBox="0 0 450.644 152.522" enable-background="new 0 0 450.644 152.522"
	 xml:space="preserve">
<g>
	<path fill="#383738" d="M449.529,91.606c-0.459-0.66-1.095-1.267-1.899-1.799c-0.803-0.527-1.829-0.802-3.069-0.802
		s-2.792,0.151-4.423,0.988c-10.558,5.388-14.573,11.94-23.443,20.281c-6.534,6.147-13.892,10.956-19.474,10.956
		c-3.822,0-6.727-1.416-8.699-4.236c-1.984-2.83-2.972-6.924-2.972-12.26c3.889-0.469,7.445-1.068,10.659-1.783
		c3.217-0.707,6.398-1.641,9.546-2.802c4.297-1.528,7.57-3.574,9.823-6.141c2.252-2.587,3.373-5.673,3.373-9.263
		c0-3.085-1.174-5.624-3.526-7.605c-2.354-1.98-5.962-2.973-10.842-2.973c-4.396,0-8.417,0.969-12.052,2.905
		c-3.638,1.924-6.715,4.455-9.223,7.61c-2.569,3.22-4.525,6.778-5.861,10.647c-1.337,3.88-2.003,7.964-2.003,12.23
		c0,4.137,0.767,7.597,2.193,10.457c0.701,1.407,0.124,2.123-1.093,2.299c-1.217,0.174-2.15,0.256-2.797,0.256
		c-1.928,0-3.302-0.348-4.119-1.051c-0.812-0.693-1.215-1.998-1.215-3.934c0-0.771,0.133-1.871,0.402-3.275
		c0.275-1.407,0.562-2.654,0.866-3.731l4.278-16.319c0.407-1.527,0.702-3.065,0.894-4.633c0.173-1.551,0.269-2.637,0.269-3.243
		c0-3.054-0.863-5.519-2.601-7.397c-1.732-1.88-4.221-2.821-7.459-2.821c-3.735,0-7.014,0.783-9.836,2.335
		c-2.809,1.561-6.021,3.851-9.628,6.867h-0.204c-0.236-2.651-1.289-4.838-3.165-6.583c-1.88-1.747-4.322-2.62-7.33-2.62
		c-3.556,0-6.606,0.683-9.184,2.038c-2.562,1.35-5.842,3.602-9.83,6.752h-0.301c-0.04-1.31,0.955-4.33,0.735-5.649
		c-0.195-1.227-1.766-2.586-4.488-2.586c-5.571,0-10.299,1.054-10.49,2.3c-0.205,1.343,3.307,1.698,4.461,2.878
		c0.94,0.968-0.257,5.343-0.92,8.802c-0.258,1.356-0.507,2.621-0.784,3.81c0,0-2.729,11.896-3.862,16.747
		c-1.141,4.854-4.033,10.548-8.405,10.548c-2.169,0-3.764-0.868-4.643-1.595c-0.885-0.734-1.318-2.053-1.318-3.98
		c0-0.811,0.15-2.011,0.453-3.593c0.305-1.567,0.593-2.876,0.865-3.927c0,0,5.869-24.182,6.228-25.562
		c0.357-1.381,0.124-2.491-1.402-2.976c-4.316-1.386-15.168-4.549-27.248-4.263c-4.165,0.1-8.131,0.892-11.888,2.669
		c-3.763,1.775-7.041,4.175-9.847,7.229c-2.787,3.071-5.135,6.598-6.666,10.701c-2.505,6.717-11.738,24.894-24.928,24.894
		c-2.302,0-4.204-0.446-5.692-1.347c-1.488-0.898-2.639-2.109-3.446-3.626c-0.677-1.326-1.187-2.915-1.525-4.776
		c-0.339-1.86-0.544-3.53-0.617-5.02c3.794-0.411,7-0.85,9.625-1.328c2.625-0.473,5.795-1.268,9.524-2.384
		c4.701-1.284,8.422-3.259,11.167-5.913c2.741-2.657,4.109-5.83,4.109-9.525c0-3.852-1.576-6.748-4.744-8.684
		c-3.168-1.922-7.772-2.891-13.838-2.891c-5.143,0-9.846,0.905-14.115,2.695c-4.268,1.797-7.781,4.135-10.559,7.008
		c-2.94,3.014-5.157,6.393-6.647,10.15c-1.49,3.755-2.233,7.637-2.233,11.627c0,3.152,0.488,6.025,1.473,8.626
		c0.576,1.556,2.074,4.904-2.092,5.287c-2.161,0.2-3.681-0.366-4.547-1.093c-0.858-0.734-1.292-2.053-1.292-3.98
		c0-0.811,0.16-2.029,0.482-3.639c0.322-1.605,0.602-2.902,0.837-3.881l13.648-59.042l-0.553-0.816
		c-30.291,0-29.276,1.087-29.364,3.287c-0.087,2.2,7.673,2.081,9.645,5.146c0.522,0.813,0.864,1.724,0.864,2.837
		c0,0.339-0.042,0.785-0.128,1.352c-0.085,0.558-0.176,1.065-0.279,1.545l-3.757,16.495c-1.391-1.079-3.135-1.949-5.232-2.612
		c-2.1-0.654-4.706-0.993-7.821-0.993c-4.134,0-8.083,0.892-11.841,2.669c-3.755,1.775-7.006,4.175-9.751,7.229
		c-2.777,3.071-4.979,6.645-6.601,10.701c-1.625,4.051-2.439,8.395-2.439,13.037c0,3.158,0.408,5.41,1.124,7.896
		c0.451,1.557,0.719,3.906-4.168,4.207c-2.165,0.138-3.685-0.347-4.569-1.059c-0.875-0.713-1.315-2.057-1.315-4.018
		c0-0.773,0.133-1.924,0.409-3.45c0.269-1.52,0.575-2.876,0.916-4.061l4.178-14.774c0.244-0.81,0.425-1.688,0.577-2.595
		c0.097-0.61,0.195-1.224,0.255-1.876c0.052-0.562,0.096-1.051,0.131-1.5c0.061-0.828,0.102-1.475,0.102-1.887
		c0-3.123-1.096-5.656-3.278-7.597c-2.186-1.947-5.292-2.925-9.324-2.925c-2.242,0-4.613,0.396-7.121,1.198
		c-2.508,0.789-5.13,1.75-7.878,2.87l-1.116,4.567c0.811-0.307,1.788-0.627,2.925-0.97c1.139-0.335,2.247-0.501,3.333-0.501
		c2.21,0,3.701,0.367,4.484,1.117c0.777,0.738,1.17,2.066,1.17,3.963c0,1.049-0.128,2.199-0.386,3.469h0.002
		c-0.25,1.27-0.568,2.619-0.944,4.044l-4.187,14.818c-0.378,1.561-0.645,2.958-0.814,4.19c-0.172,1.235-0.251,2.447-0.251,3.626
		c0,3.048,1.12,5.559,3.372,7.542c2.253,1.982,5.406,2.975,9.47,2.975c2.641,0,4.958-0.354,6.956-1.041
		c1.314-0.457,5.783-2.127,9.648-3.592c0.578-0.22,0.907-0.258,1.206,0.043c3.071,3.057,7.258,4.738,12.886,4.738
		c1.966,0,3.705-0.229,5.209-0.678c1.51-0.454,3.062-1.088,4.653-1.896c1.695-0.837,3.083-1.683,4.169-2.522
		c0.915-0.706,1.854-1.479,2.844-2.302c0.579-0.48,0.943-0.441,1.164,0.017c0.909,1.913,2.217,3.55,4.14,4.814
		c2.076,1.378,4.855,2.065,8.335,2.065c2.634,0,4.955-0.351,6.943-1.042c1.303-0.458,5.587-2.116,9.343-3.569
		c0.667-0.256,1.107-0.15,1.486,0.179c1.697,1.446,3.748,2.574,6.149,3.438c3.059,1.1,6.624,1.648,10.685,1.648
		c14.42,0,23.192-9.652,26.949-13.823c0.631-0.692,0.846-0.229,0.912,0.083c0.672,3.328,1.947,6.143,3.885,8.391
		c2.978,3.459,7.41,5.197,13.308,5.197c1.89,0,3.627-0.248,5.202-0.73c1.569-0.487,3.072-1.107,4.493-1.844
		c1.628-0.837,2.974-1.683,4.045-2.522c0.84-0.664,1.754-1.343,2.644-2.151c0.9-0.826,1.195-0.385,1.603,0.195
		c1.806,2.543,8.13,6.479,17.418,6.473c12.418,0,19.213-7.554,21.897-16.023c1.974-6.234,4.115-15.326,5.112-19.693
		c0.358-1.567,1.565-3.603,2.048-4.087c2.452-2.474,4.649-4.11,6.59-4.922c2.323-0.97,4.438-1.456,6.355-1.456
		c2.12,0,3.722,0.635,4.818,1.885c1.089,1.252,1.638,2.982,1.638,5.191c0,0.4-0.071,1.015-0.229,1.845
		c-0.144,0.831-0.308,1.618-0.482,2.37l-8,33.946h9.432c0,0,7.718-32.813,8.284-35.013c0.574-2.199,1.971-4.042,2.616-4.652
		c1.939-1.842,3.724-3.169,5.347-3.969c2.176-1.059,4.396-1.604,6.647-1.604c2.123,0,3.665,0.662,4.643,1.986
		c0.978,1.322,1.47,3.125,1.47,5.389c0,0.714-0.109,1.658-0.334,2.845c-0.215,1.188-0.516,2.515-0.889,3.963l-5.02,18.954
		c-0.31,1.223-0.528,2.282-0.658,3.18c-0.141,0.901-0.209,1.731-0.209,2.463c0,2.074,0.685,3.81,2.042,5.217
		c1.355,1.404,3.397,2.109,6.105,2.109c1.334,0,2.922-0.25,4.796-0.744c1.125-0.291,5.012-1.682,8.652-2.934
		c0.883-0.295,1.231-0.104,1.876,0.435c3.039,2.526,7.14,3.799,12.308,3.799c19.572,0,35.339-29.89,42.391-30.858
		c0.878-0.119,1.437,0.858,2.571,1.543c1.146,0.693,2.207,1.232,3.184,1.627c0.925,0.379,1.96,0.613,3.096,0.71
		c1.142,0.095,2.221-0.216,3.255-0.94c1.296-0.912,2.026-2.047,2.188-3.417C450.765,94.167,450.403,92.848,449.529,91.606z
		 M386.218,98.875c1.115-5.656,3.12-10.469,6.157-14.412c3.433-4.461,7.185-6.693,11.245-6.693c0.716,0,1.407,0.059,2.085,0.16
		c0.677,0.098,1.317,0.352,1.923,0.754c0.58,0.377,1.051,0.941,1.427,1.699c0.368,0.756,0.559,1.799,0.559,3.111
		c0,3.141-0.692,5.852-2.055,8.139c-1.373,2.271-3.467,4.146-6.277,5.595c-1.967,1.017-4.429,1.823-7.409,2.46
		c-2.346,0.486-4.513,0.865-6.477,1.207C385.99,101.135,385.916,100.395,386.218,98.875z M204.753,84.35
		c2.324-4.254,4.787-6.372,7.39-6.372c1.863,0,3.319,0.769,4.363,2.306c1.055,1.543,1.581,3.75,1.581,6.625
		c0,2.916-0.56,5.253-1.675,7.01c-1.119,1.756-2.945,3.199-5.483,4.314c-1.154,0.51-2.711,0.949-4.675,1.32
		c-1.19,0.225-2.385,0.43-3.585,0.602c-1.449,0.209-2.3-0.544-2.035-2.341C201.418,92.491,202.764,87.999,204.753,84.35z
		 M164.478,90.096c-1.372,5.943-4.073,17.622-4.688,20.27c-0.829,3.598-3.612,6.555-5.188,7.486
		c-1.571,0.932-3.155,1.398-4.753,1.398c-1.557,0-2.852-0.285-3.883-0.86c-1.037-0.577-1.859-1.388-2.466-2.442
		c-0.578-0.973-0.994-2.174-1.246-3.586c-0.258-1.428-0.385-2.96-0.385-4.625c0-3.75,0.411-7.382,1.217-10.92
		c0.819-3.533,1.9-6.58,3.257-9.154c1.455-2.766,3.121-4.958,4.999-6.568c1.88-1.604,3.907-2.41,6.069-2.41
		c1.625,0,2.916,0.249,3.863,0.74c0.94,0.484,1.742,1.158,2.385,2c0.644,0.814,1.058,1.667,1.296,2.566
		C165.412,85.732,164.961,87.989,164.478,90.096z M274.473,90.114c-1.383,5.852-4.226,17.881-4.829,20.49
		c-0.811,3.475-3.525,6.316-5.003,7.248c-1.47,0.932-3.008,1.398-4.603,1.398c-1.56,0-2.854-0.285-3.889-0.86
		c-1.035-0.577-1.861-1.388-2.466-2.442c-0.577-0.973-0.994-2.174-1.251-3.586c-0.248-1.428-0.376-2.96-0.376-4.625
		c0-3.65,0.404-7.221,1.222-10.723c0.808-3.492,1.932-6.561,3.351-9.197c1.459-2.676,3.123-4.814,5.008-6.417
		c1.879-1.608,3.933-2.403,6.171-2.403c1.455,0,2.676,0.225,3.661,0.681c0.985,0.461,1.78,1.126,2.389,2.002
		c0.506,0.714,0.864,1.572,1.064,2.583C275.132,85.279,274.931,88.165,274.473,90.114z"/>
	<path fill="#383738" d="M116.873,66.747c2.924,0,5.425-0.971,7.502-2.901c2.078-1.931,3.119-4.268,3.119-7.016
		c0-2.752-1.041-5.097-3.119-7.046c-2.077-1.953-4.578-2.931-7.502-2.931c-2.931,0-5.445,0.978-7.539,2.931
		c-2.102,1.949-3.143,4.293-3.143,7.046c0,2.748,1.041,5.084,3.143,7.016C111.428,65.775,113.942,66.747,116.873,66.747z"/>
</g>
<g>
	<path fill="#F79727" d="M0.102,122.583c0.008,0.026,0.016,0.051,0.021,0.076c0.047,0.22,0.124,0.43,0.196,0.637
		c0.509,1.18,1.571,1.521,2.802,0.289l48.297-48.298H5.142L5.14,75.293C2.3,75.295,0,77.593,0,80.43v0.004v41.133l0,0
		C0,121.915,0.037,122.251,0.102,122.583z"/>
	<g>
		<g>
			<g>
				<path fill="#B0111A" d="M0.159,122.625c0-0.011-0.007-0.021-0.009-0.033C0.152,122.605,0.159,122.615,0.159,122.625z"/>
			</g>
			<g>
				<path fill="#B0111A" d="M0.371,123.307c0.716,1.979,2.594,3.398,4.818,3.398h5.141l41.085-51.372l-48.25,48.251
					C1.941,124.808,0.884,124.48,0.371,123.307z"/>
			</g>
		</g>
	</g>
	<g>
		<g>
			<g>
				<path fill="#EC1C29" d="M56.562,75.293l-0.004-0.007h-5.142l-0.043,0.047l-41.087,51.372h46.273
					c1.416,0,2.703-0.572,3.632-1.506c0.932-0.926,1.508-2.213,1.508-3.633V80.434C61.698,77.593,59.399,75.295,56.562,75.293z"/>
			</g>
		</g>
	</g>
	<g>
		<path fill="#FFE600" d="M51.416,75.286H5.142L5.14,75.293C2.302,75.295,0,77.593,0,80.43v-0.68c0-2.428,1.341-5.882,2.985-7.676
			L69.363,1.062C71-0.725,72.346-0.204,72.346,2.223v47.726c0,2.427-1.409,5.818-3.125,7.539L51.416,75.286z"/>
	</g>
	<polygon fill="#00303C" points="25.754,131.846 25.754,126.706 56.603,126.706 	"/>
	<path fill="#2394C5" d="M56.558,126.706h0.044l-30.849,5.141v18.139c0,0.699,0.287,1.332,0.744,1.793
		c0.457,0.459,1.092,0.744,1.796,0.744c0.697,0,1.332-0.285,1.794-0.744L60.19,125.2C59.261,126.133,57.974,126.706,56.558,126.706z
		"/>
</g>
</svg>
